# xmcd
#
# Track frame offsets: 
#        150
#        22507
#        33087
#        57372
#        83227
#        108430
#        138802
#        164070
#        187412
#        207970
#        225227
#        242035
#        254645
#        270780
#        287407
#        305827
#
# Disc length: 4296 seconds
#
# Revision: 6
# Processed by: cddbd v1.5.2PL0 Copyright (c) Steve Scherf et al.
# Submitted via: ExactAudioCopyFreeDBPlugin 1.0
#
DISCID=d510c610
DTITLE=Rory Gallagher - A Blue Day For The Blues
DYEAR=1995
DGENRE=Blues
TTITLE0=I Ain't No Saint
TTITLE1=The Loop
TTITLE2=Calling Card
TTITLE3=As The Crow Flies
TTITLE4=Off The Handle
TTITLE5=Bullfrog Blues
TTITLE6=(Back On My) Stomping Ground
TTITLE7=Empire State Express
TTITLE8=Continental Op
TTITLE9=Shin Kicker
TTITLE10=Public Enemy No. 1
TTITLE11=Pistol Slapper Blues
TTITLE12=Don't Start Me Talkin'
TTITLE13=Nothing But The Devil
TTITLE14=Alexis
TTITLE15=Barley and Grape Rag
EXTD=
EXTT0=
EXTT1=
EXTT2=
EXTT3=
EXTT4=
EXTT5=
EXTT6=
EXTT7=
EXTT8=
EXTT9=
EXTT10=
EXTT11=
EXTT12=
EXTT13=
EXTT14=
EXTT15=
PLAYORDER=
